<?xml version="1.0" encoding="UTF-8"?>
<svg id="Layer_1" xmlns="http://www.w3.org/2000/svg" version="1.1" viewBox="0 0 253.96 125.58">
  <!-- Generator: Adobe Illustrator 29.1.0, SVG Export Plug-In . SVG Version: 2.1.0 Build 142)  -->
  <defs>
    <style>
      .st0 {
        fill: #9e005d;
      }
    </style>
  </defs>
  <g>
    <path d="M143.68,38.84c-.57,1.58-1.29,3.19-2.14,4.82-.86,1.63-1.85,3.1-2.97,4.42-1.12,1.32-2.37,2.4-3.73,3.23-1.36.84-2.82,1.25-4.36,1.25-4.58,0-6.86-3.32-6.86-9.97,0-3.08.44-6.08,1.32-9.01.88-2.93,2.16-5.53,3.83-7.82,1.67-2.29,3.71-4.13,6.11-5.51,2.4-1.39,5.11-2.08,8.15-2.08,1.1,0,1.98.1,2.64.3.66.2,1.45.49,2.38.89,1.76-.92,3.61-1.39,5.54-1.39l-5.94,30.1h4.82v1.68c-.88.72-1.94,1.3-3.17,1.74s-2.44.67-3.63.67c-1.28,0-2.19-.28-2.74-.83s-.82-1.13-.82-1.75c0-.79.15-2.09.46-3.89.31-1.8.77-4.09,1.39-6.86h-.26ZM133.25,48.48c1.19,0,2.38-.56,3.57-1.68,1.19-1.12,2.31-2.47,3.37-4.05,1.06-1.58,2-3.22,2.84-4.94.84-1.71,1.5-3.14,1.98-4.28l2.11-11.25c-.62-.44-1.21-.75-1.78-.92s-1.36-.26-2.38-.26c-2.02,0-3.86.63-5.51,1.88-1.65,1.25-3.06,2.86-4.22,4.84-1.17,1.98-2.07,4.17-2.71,6.58-.64,2.41-.96,4.78-.96,7.11s.27,3.96.82,5.17,1.51,1.81,2.87,1.81Z"/>
    <path d="M181.3,45.9c-.48.84-1.1,1.65-1.85,2.44-.75.79-1.63,1.51-2.64,2.15-1.01.64-2.14,1.14-3.4,1.52s-2.63.56-4.13.56c-3.26,0-5.83-1.03-7.72-3.1-1.89-2.07-2.84-4.88-2.84-8.45,0-3.17.5-6.15,1.52-8.94,1.01-2.79,2.39-5.24,4.13-7.33,1.74-2.09,3.78-3.74,6.14-4.95,2.35-1.21,4.87-1.82,7.56-1.82,1.67,0,3.04.14,4.09.41,1.06.27,1.85.65,2.38,1.15.04.5.01,1.04-.1,1.64-.11.6-.29,1.18-.53,1.76-.24.57-.55,1.1-.92,1.58-.37.48-.76.82-1.15.99l-4.49-4.62c-1.5.04-2.98.5-4.46,1.38-1.47.88-2.79,2.13-3.96,3.75-1.17,1.62-2.11,3.59-2.84,5.89-.73,2.3-1.07,4.91-1.02,7.8-.04,3.03.56,5.25,1.82,6.65s2.96,2.11,5.11,2.11c.93,0,1.79-.13,2.61-.4.81-.26,1.57-.59,2.28-.99.7-.4,1.34-.81,1.91-1.25.57-.44,1.08-.84,1.52-1.19l.99,1.25Z"/>
    <path d="M204.07,48.81c-1.41-2.38-2.6-4.63-3.57-6.77-.97-2.13-1.89-4.13-2.77-5.97l-2.38-.66-3.1,16.37h-5.68l8.98-45.01-4.62-.59v-1.65c1.28-.57,2.83-1.09,4.65-1.55,1.82-.46,3.51-.74,5.05-.83l1.39.73-6.2,30.82h1.91c.92-.57,1.88-1.28,2.87-2.11.99-.84,1.94-1.69,2.84-2.57.9-.88,1.7-1.73,2.41-2.54.7-.81,1.25-1.51,1.65-2.08.04-.31.08-.73.1-1.25.02-.53.02-1.07,0-1.62-.02-.55-.04-1.08-.07-1.58-.02-.5-.06-.89-.1-1.15,1.63-.57,3.21-.86,4.75-.86s2.9.29,3.96.86c-.57,1.45-1.45,2.9-2.64,4.36-1.19,1.45-2.46,2.81-3.83,4.06-1.36,1.25-2.71,2.4-4.03,3.43s-2.38,1.84-3.17,2.41c.31.84.8,1.92,1.49,3.27.68,1.34,1.43,2.74,2.24,4.19.81,1.45,1.67,2.86,2.57,4.22.9,1.36,1.73,2.49,2.47,3.37h4.16v1.72c-.88.7-1.84,1.28-2.87,1.72-1.04.44-2.12.66-3.27.66-1.06,0-2-.24-2.84-.73-.84-.48-1.63-1.36-2.38-2.64Z"/>
    <path d="M221.89,22.61l-4.22-.53v-1.65c.22-.18.58-.4,1.09-.66.51-.26,1.09-.53,1.75-.79.66-.26,1.34-.49,2.05-.69.7-.2,1.36-.3,1.98-.3.92,0,1.6.23,2.01.69.42.46.74,1.07.96,1.81l5.48,23.1.2,3.96h.13l1.52-3.89c.57-1.23,1.15-2.58,1.75-4.06.59-1.47,1.18-2.96,1.75-4.46.57-1.5,1.1-2.97,1.58-4.42.48-1.45.9-2.79,1.25-4.03,0-.48-.06-1.12-.17-1.91-.11-.79-.23-1.58-.36-2.38-.13-.79-.26-1.53-.4-2.21-.13-.68-.24-1.16-.33-1.42.62-.26,1.28-.46,1.98-.59.7-.13,1.39-.2,2.05-.2,1.32,0,2.49.26,3.5.79-1.36,5.46-3.22,10.91-5.58,16.37-2.36,5.46-4.96,11-7.82,16.63-2.38,4.62-4.75,8.07-7.13,10.36-2.38,2.29-5.06,3.43-8.05,3.43-.66,0-1.29-.09-1.88-.26-.59-.18-1.22-.44-1.88-.79-.04-.48,0-1.03.13-1.65.13-.62.34-1.23.63-1.85.28-.62.66-1.19,1.12-1.72.46-.53.98-.95,1.55-1.25l5.35,2.77c.31-.22.7-.54,1.19-.96.48-.42.99-.99,1.52-1.72.53-.73,1.06-1.61,1.58-2.64.53-1.03,1.03-2.28,1.52-3.73l-7.79-29.17Z"/>
  </g>
  <g>
    <path d="M119.78,94.21c-.57,1.58-1.29,3.19-2.14,4.82s-1.85,3.1-2.97,4.42c-1.12,1.32-2.37,2.4-3.73,3.23-1.36.84-2.82,1.25-4.36,1.25-4.58,0-6.86-3.32-6.86-9.97,0-3.08.44-6.08,1.32-9.01.88-2.93,2.16-5.53,3.83-7.82,1.67-2.29,3.71-4.13,6.11-5.51,2.4-1.39,5.11-2.08,8.15-2.08,1.1,0,1.98.1,2.64.3s1.45.49,2.38.89c1.76-.92,3.61-1.39,5.54-1.39l-5.94,30.1h4.82v1.68c-.88.71-1.94,1.3-3.17,1.74s-2.44.67-3.63.67c-1.28,0-2.19-.28-2.74-.82-.55-.55-.82-1.13-.82-1.75,0-.79.15-2.09.46-3.89.31-1.8.77-4.09,1.39-6.86h-.26ZM109.36,103.85c1.19,0,2.38-.56,3.56-1.68,1.19-1.12,2.31-2.47,3.37-4.05,1.06-1.58,2-3.23,2.84-4.94.84-1.71,1.5-3.14,1.98-4.28l2.11-11.25c-.62-.44-1.21-.75-1.78-.92s-1.36-.26-2.38-.26c-2.02,0-3.86.63-5.51,1.88-1.65,1.25-3.06,2.86-4.22,4.84-1.17,1.98-2.07,4.17-2.71,6.58-.64,2.41-.96,4.78-.96,7.11s.27,3.96.83,5.17c.55,1.21,1.51,1.81,2.87,1.81Z"/>
    <path d="M140.71,77.58h-4.82v-1.77c.88-.5,1.82-.94,2.81-1.33s1.92-.69,2.81-.92l.46-2.31c.57-2.73,1.35-4.98,2.34-6.77.99-1.78,2.14-3.19,3.47-4.22,1.32-1.03,2.77-1.75,4.36-2.15,1.58-.4,3.28-.59,5.08-.59.75,0,1.64.09,2.67.26,1.03.18,1.9.44,2.61.79-.09.97-.32,1.97-.69,3-.37,1.03-1,1.93-1.88,2.67l-5.02-4.09c-.79.22-1.52.46-2.18.73s-1.29.76-1.88,1.49c-.59.73-1.15,1.75-1.68,3.07-.53,1.32-1.03,3.12-1.52,5.41l-.66,3.3h7.33c.22,1.14,0,2.29-.66,3.43h-7.33l-4.22,26.78c-.48,3.12-1.3,5.7-2.44,7.77-1.15,2.06-2.37,3.73-3.66,5-1.3,1.27-2.56,2.21-3.79,2.83-1.23.61-2.18,1.01-2.84,1.18l-.59-1.45c.53-.26,1.17-.73,1.91-1.41.75-.68,1.49-1.59,2.21-2.73.73-1.14,1.41-2.53,2.05-4.18.64-1.65,1.13-3.57,1.48-5.76l4.29-28.03Z"/>
    <path d="M160.31,77.58h-4.82v-1.77c.88-.5,1.82-.94,2.81-1.33s1.92-.69,2.81-.92l.46-2.31c.57-2.73,1.35-4.98,2.34-6.77.99-1.78,2.14-3.19,3.47-4.22,1.32-1.03,2.77-1.75,4.36-2.15,1.58-.4,3.28-.59,5.08-.59.75,0,1.64.09,2.67.26,1.03.18,1.9.44,2.61.79-.09.97-.32,1.97-.69,3-.37,1.03-1,1.93-1.88,2.67l-5.02-4.09c-.79.22-1.52.46-2.18.73s-1.29.76-1.88,1.49c-.59.73-1.15,1.75-1.68,3.07-.53,1.32-1.03,3.12-1.52,5.41l-.66,3.3h7.33c.22,1.14,0,2.29-.66,3.43h-7.33l-4.22,26.78c-.48,3.12-1.3,5.7-2.44,7.77-1.15,2.06-2.37,3.73-3.66,5-1.3,1.27-2.56,2.21-3.79,2.83-1.23.61-2.18,1.01-2.84,1.18l-.59-1.45c.53-.26,1.17-.73,1.91-1.41.75-.68,1.49-1.59,2.21-2.73.73-1.14,1.41-2.53,2.05-4.18.64-1.65,1.13-3.57,1.48-5.76l4.29-28.03Z"/>
    <path d="M186.84,62.13l-4.69-.59v-1.65c.62-.26,1.33-.53,2.14-.79.81-.26,1.67-.52,2.58-.76.9-.24,1.79-.44,2.67-.59.88-.15,1.67-.23,2.38-.23l1.32.73-9.11,45.21h4.82v1.72c-.88.7-1.95,1.28-3.2,1.72-1.25.44-2.48.66-3.66.66-1.28,0-2.21-.29-2.81-.86-.59-.57-.89-1.23-.89-1.98,0-.88.06-1.74.2-2.57.13-.84.31-1.76.53-2.77l7.72-37.22Z"/>
    <path d="M219.51,101.27c-.39.84-.97,1.65-1.72,2.44-.75.79-1.63,1.51-2.64,2.15s-2.16,1.14-3.43,1.52-2.64.56-4.09.56c-3.65,0-6.46-1.04-8.42-3.14-1.96-2.09-2.94-4.98-2.94-8.68,0-3.12.44-6.07,1.32-8.84.88-2.77,2.11-5.19,3.7-7.26,1.58-2.07,3.51-3.7,5.78-4.88,2.26-1.19,4.78-1.78,7.56-1.78,2.11,0,3.93.54,5.44,1.62,1.52,1.08,2.28,2.67,2.28,4.79,0,3.12-1.55,5.59-4.65,7.39-3.1,1.8-8.11,2.97-15.02,3.5-.18.75-.3,1.47-.36,2.18-.06.7-.1,1.39-.1,2.05,0,2.64.67,4.8,2.01,6.47,1.34,1.67,3.31,2.51,5.91,2.51.84,0,1.66-.13,2.47-.4.81-.26,1.58-.59,2.31-.99.73-.39,1.39-.81,1.98-1.25s1.11-.84,1.55-1.19l1.06,1.25ZM212.58,76.26c-1.89.04-3.65.93-5.28,2.64-1.63,1.72-3.02,4.67-4.16,8.84,4.27-.13,7.59-.86,9.97-2.19s3.56-3.17,3.56-5.51c0-.91-.28-1.76-.83-2.55-.55-.78-1.64-1.2-3.27-1.24Z"/>
    <path d="M240.43,99.32c-.05-1.05-.34-1.96-.89-2.72-.55-.77-1.25-1.5-2.11-2.2-.86-.7-1.77-1.4-2.74-2.11-.97-.7-1.88-1.49-2.74-2.34s-1.56-1.85-2.11-2.97-.82-2.47-.82-4.06.31-2.97.92-4.16c.62-1.19,1.46-2.18,2.54-2.97,1.08-.79,2.38-1.4,3.89-1.82,1.52-.42,3.18-.63,4.98-.63,1.14,0,2.43.1,3.86.3,1.43.2,2.78.67,4.06,1.42,0,.48-.09,1.05-.26,1.68-.18.64-.41,1.25-.69,1.85-.29.59-.61,1.14-.96,1.65-.35.51-.73.85-1.12,1.02l-4.88-5.02c-.91.04-1.75.15-2.52.33s-1.46.46-2.04.85-1.03.91-1.36,1.54c-.32.63-.48,1.43-.48,2.39,0,1.14.28,2.11.85,2.92.57.81,1.27,1.57,2.12,2.3.85.72,1.76,1.42,2.74,2.11.98.68,1.89,1.45,2.74,2.31.85.86,1.55,1.85,2.12,2.97.57,1.12.85,2.45.85,3.99s-.36,2.99-1.09,4.22c-.73,1.23-1.72,2.28-2.97,3.14s-2.71,1.51-4.36,1.95c-1.65.44-3.4.66-5.25.66s-3.53-.19-5.05-.56c-1.52-.37-2.72-.85-3.6-1.42.22-1.14.48-2.25.79-3.33.31-1.08.95-2.08,1.91-3l5.94,5.41c.92,0,1.84-.11,2.74-.33s1.72-.57,2.44-1.05c.73-.48,1.32-1.07,1.78-1.77.46-.7.71-1.55.76-2.56Z"/>
  </g>
  <path class="st0" d="M116.75,14.35c-1.83-.4-3.72-.91-5.68-1.51-1.96-.6-3.72-1.36-5.27-2.26l.82-4.38h30.1l-.82,4.38c-1.73,1.01-3.49,1.76-5.27,2.26-1.78.5-3.54,1.01-5.27,1.51l-41.59,97.53-8.76,1.81-6.29-82.13L31.65,111.88l-8.48,1.81L18.11,14.35c-3.56-.91-6.8-2.16-9.71-3.77l.82-4.38h35.3l-.82,4.38c-1.83.81-3.72,1.51-5.68,2.11-1.96.6-4.04,1.16-6.23,1.66l1.78,61.14-.41,19.63h.27l8.35-19.93L73.66,6.2h4.79l5.75,68.99.68,19.63h.27l7.25-19.93,24.35-60.54Z"/>
</svg>